<?xml version="1.0" encoding="utf-8"?><!DOCTYPE svg PUBLIC "-//W3C//DTD SVG 1.1//EN" "http://www.w3.org/Graphics/SVG/1.1/DTD/svg11.dtd"><svg xmlns="http://www.w3.org/2000/svg" height="26" width="26" viewBox="0 0 777 777"><path fill="#292929" d="M5.42,698.22c6.46-10.82,12.76-21,18.66-31.3Q82.51,564.4,140.78,461.79c9.79-17.19,19.68-34.33,29.52-51.49.33-.57.64-1.17,1-1.72,4.22-6.18,4.24-11.54,0-18.5-32.09-52.64-63.65-105.6-95.37-158.47-3-4.93-5.86-9.89-9.22-15.59,6.69-.34,12.41-.87,18.13-.88,38.07-.07,76.15,0,114.22-.1,5.43,0,8.72,1.52,11.69,6.73,42.36,74.45,85.13,148.67,127.63,223.05,16.23,28.43,32,57.11,48,85.67,1.12,2,2.33,4,4,6.78,1.54-2.62,2.71-4.54,3.82-6.48Q413.51,497,432.8,463.2q69.46-122,139-244c1-1.76,3.52-3,5.59-3.71,1.79-.65,3.94-.36,5.93-.36H714.54c-4.68,8-8.47,14.48-12.35,20.94Q654.87,314.9,607.44,393.7c-2,3.32-2.54,6.08-.5,9.63,8.59,15,16.91,30.14,25.41,45.18q13.75,24.33,27.65,48.56,57.24,99.75,114.51,199.48a15,15,0,0,1,.6,1.74c-2.21.11-4.23.31-6.25.31l-145.14,0c-2.93,0-5.13-.34-7-3.4q-39.15-66.08-78.6-132c-5.09-8.53-10.11-17.11-15.64-26.48-2.18,3.27-4.08,5.88-5.73,8.63Q457.9,643.6,399,741.82c-1.46,2.42-3,4.75-4.54,7.15-3,4.9-5.22,4.95-8.17.06q-18.6-30.75-37.13-61.52-42.75-71.22-85.49-142.45c-2.43-4-5.7-7.55-9.15-12-3.59,6.09-6.9,11.54-10.06,17.08q-41.27,72.35-82.41,144.75c-1.37,2.41-2.69,3.69-5.7,3.69q-74.07-.15-148.14-.08C7.58,698.45,6.93,698.34,5.42,698.22Z"/><path fill="#292929" d="M390.31,301.85c-3.19,4.9-5.79,8.66-8.16,12.57q-18.24,30.07-36.4,60.2c-2.07,3.4-4.46,6.61-6.64,9.95-2.66,4.08-4.89,4.11-7.56-.2-6.22-10-12.44-20.06-18.47-30.2-18-30.31-35.86-60.71-53.95-91-2-3.4-1.58-5.7.33-9,10.42-17.78,20.58-35.71,30.73-53.65Q339,114.22,387.86,27.84c.63-1.11,1.4-2.14,2.59-3.93,1.92,3.17,3.57,5.75,5.08,8.41l118.28,209.2c2.62,4.63,5.14,9.33,8.1,13.74,1.77,2.64,1.61,4.58.05,7.21-16.17,27.15-32.17,54.4-48.32,81.56-7.9,13.29-16,26.46-24,39.68-3.17,5.23-5.23,5.32-8.34.26q-22.59-36.75-45.16-73.52C394.52,307.85,392.71,305.38,390.31,301.85Z"/></svg>