<?xml version="1.0" encoding="utf-8"?><svg xmlns="http://www.w3.org/2000/svg" height="40" width="40" viewBox="0 0 40 40"><g><path transform="rotate(0,20,20) translate(3.12302543547258,0) scale(1.24996021516592,1.24996021516592)" fill="#FFFFFF" d="M10.180021,5.7419958L12.180021,5.7419958 12.180021,9.7430191 16.265,9.7430191 16.265,11.74302 12.180021,11.74302 12.180021,15.74302 10.180021,15.74302 10.180021,11.74302 6.0950432,11.74302 6.0950432,9.7430191 10.180021,9.7430191z M11.176002,2L11.176405,2.0000076 10.952902,2.0026817C6.2591686,2.1150608 2.3584967,5.747282 2.0238028,10.364001 1.8517981,12.727002 2.6198149,15.023002 4.1848497,16.829002 5.7958841,18.687002 8.0499334,19.806002 10.531988,19.980003 10.755993,19.996002 10.977998,20.004002 11.199003,20.004003 15.991107,20.004002 20.011195,16.330002 20.351202,11.640002 20.523206,9.276001 19.755189,6.9810009 18.190155,5.1750011 16.57912,3.3170004 14.325071,2.1970005 11.843017,2.0230007 11.731014,2.015501 11.619512,2.0097504 11.508384,2.0058746L11.176405,2.0000076 11.177002,2z M11.176002,0C11.443008,0 11.712014,0.0090007782 11.98302,0.027999878 18.146154,0.46000099 22.785255,5.7240009 22.346246,11.784001 22.136241,14.681002 20.803462,17.236002 18.796168,19.066752L18.638744,19.203902 27.004018,30.833017 25.381035,32.001018 17.026103,20.38628 16.952421,20.431076C15.26246,21.432383 13.289173,22.004003 11.199003,22.004003 10.931997,22.004003 10.662991,21.994003 10.391985,21.975003 4.2288504,21.543003 -0.41025162,16.280002 0.028759003,10.220001 0.44876766,4.4250011 5.3598747,0 11.176002,0z"/></g></svg>